<?xml version="1.0" encoding="UTF-8" standalone="no"?>
<svg
   viewBox="0 0 680 720"
   width="680"
   height="720"
   role="img"
   version="1.1"
   id="svg30"
   sodipodi:docname="codeguard-icon.svg"
   inkscape:version="1.4.4 (dcaf3e7, 2026-05-05)"
   inkscape:export-filename="codeguard-ai"
   inkscape:export-xdpi="96"
   inkscape:export-ydpi="96"
   xmlns:inkscape="http://www.inkscape.org/namespaces/inkscape"
   xmlns:sodipodi="http://sodipodi.sourceforge.net/DTD/sodipodi-0.dtd"
   xmlns="http://www.w3.org/2000/svg"
   xmlns:svg="http://www.w3.org/2000/svg">
  <sodipodi:namedview
     id="namedview30"
     pagecolor="#505050"
     bordercolor="#ffffff"
     borderopacity="1"
     inkscape:showpageshadow="0"
     inkscape:pageopacity="0"
     inkscape:pagecheckerboard="1"
     inkscape:deskcolor="#505050"
     inkscape:zoom="1.5569444"
     inkscape:cx="340.08922"
     inkscape:cy="360.00001"
     inkscape:window-width="1872"
     inkscape:window-height="1371"
     inkscape:window-x="26"
     inkscape:window-y="23"
     inkscape:window-maximized="0"
     inkscape:current-layer="svg30" />
  <title
     id="title1">CodeGuard AI icon</title>
  <desc
     id="desc1">Shield icon CodeGuard AI dengan elemen code dan eye scan</desc>
  <defs
     id="defs1">
    <clipPath
       id="sc">
      <path
         d="M340 60 L580 155 L580 380 C580 510 450 610 340 655 C230 610 100 510 100 380 L100 155 Z"
         id="path1" />
    </clipPath>
    <clipPath
       clipPathUnits="userSpaceOnUse"
       id="clipPath30">
      <path
         d="m 340,74 240,95 V 394 C 580,524 450,624 340,669 230,624 100,524 100,394 V 169 Z"
         id="path31" />
    </clipPath>
    <clipPath
       clipPathUnits="userSpaceOnUse"
       id="clipPath31">
      <path
         d="m 340,74 240,95 V 394 C 580,524 450,624 340,669 230,624 100,524 100,394 V 169 Z"
         id="path32" />
    </clipPath>
    <clipPath
       clipPathUnits="userSpaceOnUse"
       id="clipPath32">
      <path
         d="m 340,74 240,95 V 394 C 580,524 450,624 340,669 230,624 100,524 100,394 V 169 Z"
         id="path33" />
    </clipPath>
    <clipPath
       clipPathUnits="userSpaceOnUse"
       id="clipPath33">
      <path
         d="m 340,74 240,95 V 394 C 580,524 450,624 340,669 230,624 100,524 100,394 V 169 Z"
         id="path34" />
    </clipPath>
    <clipPath
       clipPathUnits="userSpaceOnUse"
       id="clipPath34">
      <path
         d="m 340,74 240,95 V 394 C 580,524 450,624 340,669 230,624 100,524 100,394 V 169 Z"
         id="path35" />
    </clipPath>
    <clipPath
       clipPathUnits="userSpaceOnUse"
       id="clipPath35">
      <path
         d="m 340,74 240,95 V 394 C 580,524 450,624 340,669 230,624 100,524 100,394 V 169 Z"
         id="path36" />
    </clipPath>
    <clipPath
       clipPathUnits="userSpaceOnUse"
       id="clipPath36">
      <path
         d="m 340,74 240,95 V 394 C 580,524 450,624 340,669 230,624 100,524 100,394 V 169 Z"
         id="path37" />
    </clipPath>
    <clipPath
       clipPathUnits="userSpaceOnUse"
       id="clipPath37">
      <path
         d="m 340,74 240,95 V 394 C 580,524 450,624 340,669 230,624 100,524 100,394 V 169 Z"
         id="path38" />
    </clipPath>
    <clipPath
       clipPathUnits="userSpaceOnUse"
       id="clipPath38">
      <path
         d="m 340,74 240,95 V 394 C 580,524 450,624 340,669 230,624 100,524 100,394 V 169 Z"
         id="path39" />
    </clipPath>
    <clipPath
       clipPathUnits="userSpaceOnUse"
       id="clipPath39">
      <path
         d="m 340,74 240,95 V 394 C 580,524 450,624 340,669 230,624 100,524 100,394 V 169 Z"
         id="path40" />
    </clipPath>
    <clipPath
       clipPathUnits="userSpaceOnUse"
       id="clipPath40">
      <path
         d="m 340,74 240,95 V 394 C 580,524 450,624 340,669 230,624 100,524 100,394 V 169 Z"
         id="path41" />
    </clipPath>
    <clipPath
       clipPathUnits="userSpaceOnUse"
       id="clipPath41">
      <path
         d="m 340,74 240,95 V 394 C 580,524 450,624 340,669 230,624 100,524 100,394 V 169 Z"
         id="path42" />
    </clipPath>
    <clipPath
       clipPathUnits="userSpaceOnUse"
       id="clipPath42">
      <path
         d="m 340,74 240,95 V 394 C 580,524 450,624 340,669 230,624 100,524 100,394 V 169 Z"
         id="path43" />
    </clipPath>
    <clipPath
       clipPathUnits="userSpaceOnUse"
       id="clipPath43">
      <path
         d="m 340,74 240,95 V 394 C 580,524 450,624 340,669 230,624 100,524 100,394 V 169 Z"
         id="path44" />
    </clipPath>
  </defs>
  <rect
     width="680"
     height="720"
     fill="#060e1a"
     id="rect1" />
  <path
     d="M340 60 L580 155 L580 380 C580 510 450 610 340 655 C230 610 100 510 100 380 L100 155 Z"
     fill="#060e1a"
     stroke="#22d3ee"
     stroke-width="3.5"
     id="path2" />
  <path
     d="M340 92 L552 178 L552 378 C552 492 436 583 340 623 C244 583 128 492 128 378 L128 178 Z"
     fill="none"
     stroke="#22d3ee"
     stroke-width="0.8"
     opacity="0.25"
     id="path3" />
  <g
     clip-path="url(#sc)"
     opacity="0.07"
     id="g19">
    <line
       x1="100"
       y1="180"
       x2="580"
       y2="180"
       stroke="#22d3ee"
       stroke-width="0.8"
       id="line3" />
    <line
       x1="100"
       y1="220"
       x2="580"
       y2="220"
       stroke="#22d3ee"
       stroke-width="0.8"
       id="line4" />
    <line
       x1="100"
       y1="260"
       x2="580"
       y2="260"
       stroke="#22d3ee"
       stroke-width="0.8"
       id="line5" />
    <line
       x1="100"
       y1="300"
       x2="580"
       y2="300"
       stroke="#22d3ee"
       stroke-width="0.8"
       id="line6" />
    <line
       x1="100"
       y1="340"
       x2="580"
       y2="340"
       stroke="#22d3ee"
       stroke-width="0.8"
       id="line7" />
    <line
       x1="100"
       y1="380"
       x2="580"
       y2="380"
       stroke="#22d3ee"
       stroke-width="0.8"
       id="line8" />
    <line
       x1="100"
       y1="420"
       x2="580"
       y2="420"
       stroke="#22d3ee"
       stroke-width="0.8"
       id="line9" />
    <line
       x1="100"
       y1="460"
       x2="580"
       y2="460"
       stroke="#22d3ee"
       stroke-width="0.8"
       id="line10" />
    <line
       x1="100"
       y1="500"
       x2="580"
       y2="500"
       stroke="#22d3ee"
       stroke-width="0.8"
       id="line11" />
    <line
       x1="100"
       y1="540"
       x2="580"
       y2="540"
       stroke="#22d3ee"
       stroke-width="0.8"
       id="line12" />
    <line
       x1="160"
       y1="60"
       x2="160"
       y2="655"
       stroke="#22d3ee"
       stroke-width="0.8"
       id="line13" />
    <line
       x1="220"
       y1="60"
       x2="220"
       y2="655"
       stroke="#22d3ee"
       stroke-width="0.8"
       id="line14" />
    <line
       x1="280"
       y1="60"
       x2="280"
       y2="655"
       stroke="#22d3ee"
       stroke-width="0.8"
       id="line15" />
    <line
       x1="340"
       y1="60"
       x2="340"
       y2="655"
       stroke="#22d3ee"
       stroke-width="0.8"
       id="line16" />
    <line
       x1="400"
       y1="60"
       x2="400"
       y2="655"
       stroke="#22d3ee"
       stroke-width="0.8"
       id="line17" />
    <line
       x1="460"
       y1="60"
       x2="460"
       y2="655"
       stroke="#22d3ee"
       stroke-width="0.8"
       id="line18" />
    <line
       x1="520"
       y1="60"
       x2="520"
       y2="655"
       stroke="#22d3ee"
       stroke-width="0.8"
       id="line19" />
  </g>
  <rect
     x="240"
     y="176"
     width="200"
     height="7"
     rx="3"
     fill="#22d3ee"
     opacity="0.85"
     id="rect19"
     clip-path="url(#clipPath43)"
     transform="translate(0,-2)" />
  <rect
     x="260"
     y="196"
     width="160"
     height="7"
     rx="3"
     fill="#22d3ee"
     opacity="0.55"
     id="rect20"
     clip-path="url(#clipPath42)"
     transform="translate(0,-2)" />
  <rect
     x="280"
     y="216"
     width="120"
     height="7"
     rx="3"
     fill="#22d3ee"
     opacity="0.3"
     id="rect21"
     clip-path="url(#clipPath41)"
     transform="translate(0,-2)" />
  <text
     x="163.53682"
     y="429.10794"
     text-anchor="middle"
     fill="#14b8a6"
     font-family="monospace"
     font-size="140.697px"
     font-weight="700"
     id="text21"
     transform="scale(1.1176229,0.89475616)"
     style="stroke-width:1.40697">&lt;</text>
  <text
     x="455.30197"
     y="420.42926"
     text-anchor="middle"
     fill="#14b8a6"
     font-family="monospace"
     font-size="135.398px"
     font-weight="700"
     id="text22"
     transform="scale(1.0970202,0.91156025)"
     style="stroke-width:1.35398">&gt;</text>
  <circle
     cx="340"
     cy="344"
     r="88"
     fill="none"
     stroke="#22d3ee"
     stroke-width="1.5"
     opacity="0.25"
     id="circle22"
     clip-path="url(#clipPath40)" />
  <circle
     cx="340"
     cy="344"
     r="66"
     fill="none"
     stroke="#22d3ee"
     stroke-width="2"
     opacity="0.8"
     id="circle23"
     clip-path="url(#clipPath39)" />
  <circle
     cx="340"
     cy="344"
     r="42"
     fill="#0a1628"
     id="circle24"
     clip-path="url(#clipPath38)" />
  <circle
     cx="340"
     cy="344"
     r="28"
     fill="#22d3ee"
     opacity="0.9"
     id="circle25"
     clip-path="url(#clipPath37)" />
  <circle
     cx="340"
     cy="344"
     r="12"
     fill="#060e1a"
     id="circle26"
     clip-path="url(#clipPath36)" />
  <circle
     cx="330"
     cy="334"
     r="5"
     fill="#22d3ee"
     opacity="0.6"
     id="circle27"
     clip-path="url(#clipPath35)" />
  <line
     x1="128"
     y1="344"
     x2="262"
     y2="344"
     stroke="#22d3ee"
     stroke-width="1.5"
     opacity="0.5"
     id="line27"
     clip-path="url(#clipPath34)" />
  <line
     x1="418"
     y1="344"
     x2="552"
     y2="344"
     stroke="#22d3ee"
     stroke-width="1.5"
     opacity="0.5"
     id="line28"
     clip-path="url(#clipPath33)" />
  <rect
     x="280"
     y="464"
     width="120"
     height="7"
     rx="3"
     fill="#a78bfa"
     opacity="0.3"
     id="rect28"
     clip-path="url(#clipPath32)"
     transform="translate(0,2)" />
  <rect
     x="260"
     y="484"
     width="160"
     height="7"
     rx="3"
     fill="#a78bfa"
     opacity="0.55"
     id="rect29"
     clip-path="url(#clipPath31)"
     transform="translate(0,2)" />
  <rect
     x="240"
     y="504"
     width="200"
     height="7"
     rx="3"
     fill="#a78bfa"
     opacity="0.85"
     id="rect30"
     clip-path="url(#clipPath30)"
     transform="translate(0,2)" />
  <circle
     cx="340"
     cy="100"
     r="5"
     fill="#22d3ee"
     id="circle30" />
  <line
     x1="300"
     y1="112"
     x2="380"
     y2="112"
     stroke="#22d3ee"
     stroke-width="0.8"
     opacity="0.4"
     id="line30"
     style="display:inline" />
</svg>
